<svg width="40" height="40" fill="none" xmlns="http://www.w3.org/2000/svg"><path d="M20.006 0C11.656 0 9.215.009 8.74.048c-1.713.142-2.78.412-3.941.99A7.984 7.984 0 0 0 2.5 2.722C1.23 4.04.463 5.661.184 7.587.05 8.523.01 8.713.001 13.492c-.003 1.592 0 3.688 0 6.5 0 8.345.01 10.786.05 11.26.138 1.667.4 2.717.953 3.865 1.059 2.197 3.08 3.846 5.46 4.461.825.213 1.736.33 2.905.385.495.022 5.543.037 10.595.037 5.051 0 10.103-.006 10.585-.03 1.354-.064 2.14-.17 3.01-.395a8.374 8.374 0 0 0 5.46-4.47c.543-1.12.818-2.21.943-3.791.027-.345.038-5.84.038-11.327 0-5.488-.012-10.973-.04-11.318-.126-1.606-.4-2.686-.961-3.828a7.928 7.928 0 0 0-1.712-2.346C35.964 1.231 34.345.462 32.417.183c-.934-.135-1.12-.175-5.9-.183h-6.51Z" fill="url(#a)"/><path d="M20.006 0C11.656 0 9.215.009 8.74.048c-1.713.142-2.78.412-3.941.99A7.984 7.984 0 0 0 2.5 2.722C1.23 4.04.463 5.661.184 7.587.05 8.523.01 8.713.001 13.492c-.003 1.592 0 3.688 0 6.5 0 8.345.01 10.786.05 11.26.138 1.667.4 2.717.953 3.865 1.059 2.197 3.08 3.846 5.46 4.461.825.213 1.736.33 2.905.385.495.022 5.543.037 10.595.037 5.051 0 10.103-.006 10.585-.03 1.354-.064 2.14-.17 3.01-.395a8.374 8.374 0 0 0 5.46-4.47c.543-1.12.818-2.21.943-3.791.027-.345.038-5.84.038-11.327 0-5.488-.012-10.973-.04-11.318-.126-1.606-.4-2.686-.961-3.828a7.928 7.928 0 0 0-1.712-2.346C35.964 1.231 34.345.462 32.417.183c-.934-.135-1.12-.175-5.9-.183h-6.51Z" fill="url(#b)"/><path d="M19.996 5.231c-4.01 0-4.513.018-6.088.09-1.572.071-2.646.32-3.584.686A7.23 7.23 0 0 0 7.708 7.71a7.251 7.251 0 0 0-1.705 2.616c-.366.94-.615 2.013-.686 3.585-.07 1.575-.088 2.08-.088 6.09 0 4.012.017 4.514.089 6.09.072 1.572.32 2.645.686 3.584a7.238 7.238 0 0 0 1.703 2.617 7.23 7.23 0 0 0 2.615 1.705c.94.365 2.013.614 3.584.686 1.575.072 2.078.09 6.088.09 4.011 0 4.513-.018 6.088-.09 1.572-.072 2.646-.321 3.586-.686a7.225 7.225 0 0 0 2.614-1.705 7.251 7.251 0 0 0 1.704-2.616c.363-.94.612-2.013.686-3.585.07-1.576.09-2.078.09-6.09 0-4.01-.02-4.514-.09-6.09-.074-1.572-.323-2.645-.686-3.585a7.25 7.25 0 0 0-1.704-2.616 7.217 7.217 0 0 0-2.615-1.703c-.942-.366-2.015-.615-3.587-.687-1.575-.071-2.077-.089-6.088-.089h.004Zm-1.324 2.662h1.324c3.943 0 4.41.014 5.967.085 1.44.066 2.221.306 2.742.509a4.56 4.56 0 0 1 1.697 1.104c.517.517.836 1.01 1.105 1.699.202.52.443 1.302.508 2.742.07 1.557.086 2.024.086 5.966s-.015 4.41-.086 5.967c-.066 1.44-.306 2.222-.508 2.742a4.566 4.566 0 0 1-1.105 1.697 4.566 4.566 0 0 1-1.697 1.104c-.52.203-1.302.443-2.742.51-1.557.07-2.024.085-5.967.085-3.943 0-4.41-.015-5.967-.086-1.44-.066-2.22-.307-2.742-.51a4.575 4.575 0 0 1-1.698-1.104 4.579 4.579 0 0 1-1.105-1.697c-.202-.52-.443-1.302-.508-2.742-.071-1.557-.085-2.025-.085-5.97 0-3.944.014-4.409.085-5.966.066-1.44.306-2.222.508-2.742A4.576 4.576 0 0 1 9.59 9.587a4.583 4.583 0 0 1 1.698-1.105c.52-.203 1.303-.443 2.742-.51 1.363-.061 1.89-.08 4.643-.083v.004Zm9.206 2.452a1.772 1.772 0 1 0 0 3.546 1.772 1.772 0 0 0 0-3.546Zm-7.882 2.071a7.585 7.585 0 0 0 0 15.17 7.582 7.582 0 0 0 7.582-7.584 7.584 7.584 0 0 0-7.582-7.586Zm0 2.662a4.923 4.923 0 1 1-.002 9.848 4.923 4.923 0 0 1 .002-9.848Z" fill="#fff"/><defs><radialGradient id="a" cx="0" cy="0" r="1" gradientUnits="userSpaceOnUse" gradientTransform="matrix(0 -39.643 36.8711 0 10.625 43.08)"><stop stop-color="#FD5"/><stop offset=".1" stop-color="#FD5"/><stop offset=".5" stop-color="#FF543E"/><stop offset="1" stop-color="#C837AB"/></radialGradient><radialGradient id="b" cx="0" cy="0" r="1" gradientUnits="userSpaceOnUse" gradientTransform="matrix(3.47805 17.37593 -71.62415 14.33662 -6.7 2.882)"><stop stop-color="#3771C8"/><stop offset=".128" stop-color="#3771C8"/><stop offset="1" stop-color="#60F" stop-opacity="0"/></radialGradient></defs></svg>