<svg width="46" height="38" fill="none" xmlns="http://www.w3.org/2000/svg"><path d="M14.893 24.232h.723v2.81h1.028v-2.81h.723l-1.233-2.225-1.24 2.225ZM4.05 22.634h8.661v4.408H4.05v-4.408Z" fill="#000"/><path d="M44.929 16.264c-3.043-.599-5.714-1.898-8.02-3.868a.364.364 0 0 0 .087-.226V3.216c0-1.313-1.05-2.386-2.335-2.386H2.611C1.328.83.285 1.903.285 3.216v25.147c0 1.313 1.043 2.378 2.328 2.378h23.044a.376.376 0 0 0 .197-.065 16.095 16.095 0 0 0 5.473 4.947l2.576 1.43a.95.95 0 0 0 .927 0l2.569-1.43a16.074 16.074 0 0 0 8.319-14.083v-4.342a.96.96 0 0 0-.788-.934ZM2.612 30.012c-.883 0-1.599-.737-1.599-1.65V3.216c0-.912.716-1.656 1.599-1.656h11.595v10.384l1.474-1.277 1.481 1.277 1.474-1.277 1.474 1.277 1.474-1.277 1.475 1.277V1.56h11.588c.883 0 1.605.744 1.605 1.656v8.61a22.756 22.756 0 0 1-1.175-1.189.967.967 0 0 0-1.452 0c-2.685 2.978-5.97 4.86-9.851 5.627a.961.961 0 0 0-.774.934v4.342c0 3.05.869 5.969 2.423 8.472H2.612Zm41.193-8.472a14.18 14.18 0 0 1-7.334 12.412l-2.109 1.168-2.116-1.168a14.181 14.181 0 0 1-7.334-12.412v-3.57c3.634-.854 6.801-2.641 9.45-5.32 2.642 2.679 5.809 4.466 9.443 5.32v3.569Z" fill="#000"/><path d="M30.757 23.554a.956.956 0 0 0-1.35 1.35l2.627 2.627a.974.974 0 0 0 1.357 0l5.933-5.933a.956.956 0 0 0-1.35-1.35l-5.261 5.261-1.956-1.955Z" fill="#000"/></svg>