<svg width="48" height="48" fill="none" xmlns="http://www.w3.org/2000/svg"><path d="M18.994 46.804H3.604c-.73 0-1.4-.3-1.897-.832a2.58 2.58 0 0 1-.679-1.97l2.38-29.715a.614.614 0 0 1 .612-.569h4.247v4.028c0 .818.657 1.482 1.474 1.482.818 0 1.482-.664 1.482-1.482v-4.028h12.55v4.028c0 .292.088.562.234.788a8.383 8.383 0 0 1 2.722-5.998V9.705c0-5.094-4.137-9.239-9.23-9.239-5.094 0-9.232 4.145-9.232 9.239v3.284H4.02c-.7 0-1.292.547-1.343 1.24L.298 43.944a3.315 3.315 0 0 0 3.298 3.59h15.39c.205 0 .366-.16.366-.365a.36.36 0 0 0-.358-.365Zm-7.771-37.1a6.282 6.282 0 0 1 6.275-6.282c3.46 0 6.276 2.816 6.276 6.283v3.284H11.222V9.704Z" fill="#000"/><path d="M8.42 28.678c0 4.341 3.532 7.866 7.867 7.866.927 0 1.817-.16 2.642-.452l1.116-14.004c.007-.11.03-.219.058-.328a7.912 7.912 0 0 0-3.816-.978c-4.335 0-7.867 3.525-7.867 7.896Zm10.582 2.685a1.013 1.013 0 0 1-1.453 0 1.029 1.029 0 0 1 0-1.46 1.026 1.026 0 0 1 1.453 0 1.029 1.029 0 0 1 0 1.46Zm-5.4-5.4a1.035 1.035 0 0 1 1.459 0 1.035 1.035 0 0 1 0 1.46 1.035 1.035 0 0 1-1.46 0 1.035 1.035 0 0 1 0-1.46Zm-.482 4.816 5.305-5.305a.758.758 0 0 1 1.065 0 .728.728 0 0 1 .22.533.744.744 0 0 1-.22.54l-5.305 5.305a.758.758 0 0 1-1.065 0 .753.753 0 0 1 0-1.073Zm32.78-8.603a1.113 1.113 0 0 0-1.11-1.022h-1.693v-2.408c0-3.86-3.145-7.005-7.005-7.005-.628 0-1.241.095-1.817.248a7.136 7.136 0 0 0-1.817-.248c-3.86 0-7.006 3.145-7.006 7.005v2.408h-3.218a1.12 1.12 0 0 0-1.11 1.022L19.33 44.717a2.611 2.611 0 0 0 2.598 2.817H45.11c.73 0 1.43-.306 1.92-.84a2.574 2.574 0 0 0 .67-1.97l-1.8-22.547Zm-5.036-3.43v2.408H39.47v-2.408a6.97 6.97 0 0 0-1.569-4.407 4.776 4.776 0 0 1 2.963 4.407Zm-6.582-4.4a4.757 4.757 0 0 1 2.94 4.4v2.408h-5.888v-2.408a4.79 4.79 0 0 1 2.948-4.4Zm-6.582 4.4a4.776 4.776 0 0 1 2.962-4.407 6.969 6.969 0 0 0-1.569 4.407v2.408H27.7v-2.408ZM20.548 46.2a1.857 1.857 0 0 1-.489-1.423l1.803-22.535a.381.381 0 0 1 .38-.35h3.217v2.97a1.124 1.124 0 0 0 2.248 0v-2.977h9.523v2.97a1.124 1.124 0 0 0 2.248 0v-2.97h3.218a.39.39 0 0 1 .387.416l-1.825 22.775a1.887 1.887 0 0 1-1.839 1.722H21.927a1.855 1.855 0 0 1-1.379-.598Z" fill="#000"/><path d="M30.312 31.837c0 .22.08.38.248.497.16.116.394.218.693.299V31.02c-.277.044-.503.131-.671.27a.652.652 0 0 0-.27.547Zm2.306 2.123a3.328 3.328 0 0 0-.759-.298v1.583c.679-.066 1.015-.343 1.015-.846a.488.488 0 0 0-.256-.438Z" fill="#000"/><path d="M31.553 27.153c-3.291 0-5.97 2.678-5.97 5.99 0 3.292 2.679 5.963 5.97 5.963 3.313 0 5.983-2.671 5.983-5.962a5.98 5.98 0 0 0-5.983-5.991Zm1.919 8.092c-.153.241-.387.43-.672.57-.27.13-.583.211-.94.24v.511a.27.27 0 0 1-.088.212.286.286 0 0 1-.22.087.286.286 0 0 1-.3-.3v-.51a4.938 4.938 0 0 1-1.582-.38.372.372 0 0 1-.183-.152.393.393 0 0 1-.08-.234.408.408 0 0 1 .11-.27.37.37 0 0 1 .284-.124c.059 0 .117.015.176.036.4.183.831.285 1.276.314V33.51a6.867 6.867 0 0 1-.883-.3 1.73 1.73 0 0 1-.642-.496c-.175-.212-.262-.489-.262-.817 0-.285.073-.555.211-.796a1.71 1.71 0 0 1 .635-.613c.263-.145.577-.24.941-.277v-.51c0-.08.03-.154.088-.22a.31.31 0 0 1 .43 0 .297.297 0 0 1 .088.22v.496a4.46 4.46 0 0 1 1.358.27.37.37 0 0 1 .262.372c0 .102-.036.19-.102.27a.333.333 0 0 1-.277.124.375.375 0 0 1-.154-.037c-.335-.117-.7-.19-1.087-.204v1.795c.372.088.679.183.92.292.262.11.488.27.664.489.175.226.27.518.27.876 0 .291-.08.562-.241.802Z" fill="#000"/></svg>