<svg width="90" height="37" fill="none" xmlns="http://www.w3.org/2000/svg"><path opacity=".4" d="M7.352 30.47c0 .528.125.99.374 1.386.257.396.601.704 1.034.924.44.22.935.33 1.485.33.557 0 1.052-.11 1.485-.33.433-.22.774-.528 1.023-.924.257-.396.385-.858.385-1.386 0-.535-.128-.997-.385-1.386a2.546 2.546 0 0 0-1.023-.924 3.121 3.121 0 0 0-1.474-.341c-.55 0-1.045.11-1.485.33a2.61 2.61 0 0 0-1.045.924c-.25.396-.374.862-.374 1.397Zm1.716 0c0-.264.051-.488.154-.671a1.178 1.178 0 0 1 1.034-.605c.213 0 .407.055.583.165a1.1 1.1 0 0 1 .418.44c.103.19.154.41.154.66 0 .264-.051.491-.154.682a1.1 1.1 0 0 1-.418.44 1.157 1.157 0 0 1-.594.154c-.213 0-.41-.051-.594-.154a1.178 1.178 0 0 1-.429-.44 1.436 1.436 0 0 1-.154-.671Zm4.607-2.53v1.375h3.454V27.94h-3.454Zm3.29-1.925.66-1.221a1.825 1.825 0 0 0-.297-.231 1.506 1.506 0 0 0-.462-.22 1.917 1.917 0 0 0-.65-.099c-.41 0-.762.073-1.056.22a1.428 1.428 0 0 0-.637.627c-.14.271-.21.598-.21.979V33h1.595v-6.501c0-.183.023-.33.067-.44a.52.52 0 0 1 .176-.242.522.522 0 0 1 .285-.077c.11 0 .206.022.287.066a.58.58 0 0 1 .242.209Zm.492 1.925v1.375h3.454V27.94h-3.454Zm3.289-1.925.66-1.221a1.825 1.825 0 0 0-.297-.231 1.506 1.506 0 0 0-.462-.22 1.917 1.917 0 0 0-.65-.099c-.41 0-.762.073-1.055.22a1.427 1.427 0 0 0-.638.627c-.14.271-.21.598-.21.979V33h1.596v-6.501c0-.183.022-.33.066-.44a.52.52 0 0 1 .176-.242.522.522 0 0 1 .286-.077.59.59 0 0 1 .286.066.58.58 0 0 1 .242.209Zm.844.033a.81.81 0 0 0 .275.638c.183.161.414.242.693.242.271 0 .499-.08.682-.242a.795.795 0 0 0 .286-.638.827.827 0 0 0-.286-.649.969.969 0 0 0-.682-.253.984.984 0 0 0-.693.253.842.842 0 0 0-.275.649Zm.154 1.892V33h1.617v-5.06h-1.617Zm4.404 2.53c0-.25.058-.47.176-.66.124-.198.286-.356.484-.473a1.35 1.35 0 0 1 .682-.176c.183 0 .37.03.56.088.191.051.367.132.529.242.168.11.304.246.407.407V28.27a2.116 2.116 0 0 0-.671-.319 3.347 3.347 0 0 0-.968-.121c-.565 0-1.067.11-1.507.33a2.61 2.61 0 0 0-1.045.924c-.25.389-.374.85-.374 1.386 0 .528.125.99.374 1.386.256.396.605.704 1.045.924.44.22.942.33 1.507.33.381 0 .704-.04.968-.121.271-.088.495-.202.67-.341v-1.617a1.394 1.394 0 0 1-.395.407 1.79 1.79 0 0 1-.517.253 2.154 2.154 0 0 1-.583.077c-.25 0-.477-.051-.682-.154a1.35 1.35 0 0 1-.484-.451 1.298 1.298 0 0 1-.176-.693Zm3.918-4.422c0 .264.091.477.275.638.183.161.414.242.693.242.271 0 .498-.08.682-.242a.795.795 0 0 0 .286-.638.827.827 0 0 0-.286-.649.969.969 0 0 0-.682-.253.984.984 0 0 0-.693.253.842.842 0 0 0-.275.649Zm.154 1.892V33h1.617v-5.06H30.22Zm4.293 3.476a.59.59 0 0 1 .077-.319.557.557 0 0 1 .264-.187 1.44 1.44 0 0 1 .473-.066c.257 0 .5.037.726.11.235.066.44.165.616.297v-.737a1.195 1.195 0 0 0-.396-.275 2.604 2.604 0 0 0-.638-.209 3.55 3.55 0 0 0-.814-.088c-.44 0-.806.062-1.1.187a1.377 1.377 0 0 0-.66.539 1.55 1.55 0 0 0-.22.836c0 .345.081.638.242.88.17.242.39.425.66.55.272.117.569.176.891.176.323 0 .624-.055.902-.165.286-.117.514-.286.682-.506.176-.227.264-.502.264-.825l-.176-.66c0 .235-.05.433-.154.594a.99.99 0 0 1-.396.363c-.16.08-.337.121-.528.121a.848.848 0 0 1-.363-.077.684.684 0 0 1-.264-.209.582.582 0 0 1-.088-.33Zm-.748-1.925a2.13 2.13 0 0 1 .341-.165 3.41 3.41 0 0 1 .583-.187c.22-.051.444-.077.671-.077.154 0 .29.015.407.044.118.03.217.077.297.143a.48.48 0 0 1 .187.242.882.882 0 0 1 .055.319V33h1.595v-3.575a1.31 1.31 0 0 0-.308-.88 1.899 1.899 0 0 0-.836-.55 3.34 3.34 0 0 0-1.199-.198 4.45 4.45 0 0 0-1.32.187c-.396.117-.74.246-1.034.385l.561 1.122Zm5.37-5.071V33h1.682v-8.58h-1.683Zm7.912 3.52h-1.65V33h1.65v-5.06Zm1.463 1.727.726-1.441a.961.961 0 0 0-.385-.286 1.21 1.21 0 0 0-.528-.121 1.38 1.38 0 0 0-.814.275c-.25.183-.455.433-.616.748a2.334 2.334 0 0 0-.242 1.078l.396.583c0-.242.033-.447.099-.616a.816.816 0 0 1 .297-.374.708.708 0 0 1 .418-.132c.147 0 .268.026.363.077.103.051.198.121.286.209Zm3.855 3.443c.645 0 1.191-.125 1.639-.374.447-.25.806-.623 1.078-1.122l-1.496-.363c-.117.22-.282.385-.495.495-.213.11-.466.165-.76.165a1.18 1.18 0 0 1-.648-.176 1.067 1.067 0 0 1-.396-.495 2 2 0 0 1-.121-.792c0-.257.022-.477.066-.66.051-.19.124-.348.22-.473a.855.855 0 0 1 .352-.275c.146-.066.315-.099.506-.099.19 0 .36.044.506.132a.804.804 0 0 1 .34.374c.074.154.11.345.11.572a.67.67 0 0 1-.032.187 1.175 1.175 0 0 1-.088.198l.396-.506h-3.124v.924h4.63c.008-.059.012-.125.012-.198v-.231c0-.543-.107-1.005-.32-1.386a2.08 2.08 0 0 0-.923-.869c-.404-.205-.898-.308-1.485-.308-.44 0-.836.062-1.188.187-.352.117-.653.29-.902.517-.25.227-.44.506-.572.836-.125.323-.187.69-.187 1.1 0 .535.117 1.001.352 1.397.234.396.565.704.99.924.432.213.946.319 1.54.319Zm3.995-1.947-.693 1.1c.228.176.474.337.737.484.264.14.55.25.858.33a3.8 3.8 0 0 0 1.023.132c.404 0 .745-.062 1.024-.187.285-.125.502-.308.649-.55.154-.242.23-.543.23-.902 0-.315-.07-.568-.209-.759a1.572 1.572 0 0 0-.527-.473 4.152 4.152 0 0 0-.727-.33 16.922 16.922 0 0 0-.638-.231 1.636 1.636 0 0 1-.396-.209.344.344 0 0 1-.132-.275c0-.095.04-.172.122-.231a.55.55 0 0 1 .33-.088c.227 0 .48.066.758.198.28.132.517.297.715.495l.594-1.089a3.58 3.58 0 0 0-.627-.385 3.596 3.596 0 0 0-.715-.264 3.22 3.22 0 0 0-.825-.099c-.359 0-.681.055-.968.165a1.56 1.56 0 0 0-.681.484 1.255 1.255 0 0 0-.242.781c0 .323.07.587.208.792.14.205.32.37.54.495.227.125.454.231.681.319.28.08.495.158.65.231.154.066.264.14.33.22a.38.38 0 0 1 .099.264.38.38 0 0 1-.121.297c-.081.073-.206.11-.374.11-.118 0-.257-.022-.419-.066a3.215 3.215 0 0 1-.56-.253 5.989 5.989 0 0 1-.694-.506Zm7.327 1.947c.645 0 1.192-.125 1.64-.374.447-.25.806-.623 1.077-1.122l-1.496-.363c-.117.22-.282.385-.495.495-.212.11-.465.165-.759.165-.25 0-.466-.059-.649-.176a1.067 1.067 0 0 1-.396-.495 2.002 2.002 0 0 1-.12-.792c0-.257.021-.477.065-.66a1.35 1.35 0 0 1 .22-.473.856.856 0 0 1 .352-.275c.147-.066.316-.099.506-.099s.36.044.506.132a.804.804 0 0 1 .341.374c.073.154.11.345.11.572a.67.67 0 0 1-.033.187 1.167 1.167 0 0 1-.088.198l.396-.506H61.74v.924h4.631c.008-.059.011-.125.011-.198v-.231c0-.543-.106-1.005-.319-1.386a2.08 2.08 0 0 0-.924-.869c-.403-.205-.898-.308-1.485-.308-.44 0-.836.062-1.188.187-.352.117-.653.29-.902.517-.25.227-.44.506-.572.836-.124.323-.187.69-.187 1.1 0 .535.117 1.001.352 1.397.235.396.565.704.99.924.433.213.946.319 1.54.319Zm3.71-8.69V33h1.683v-8.58h-1.683Zm2.965 0V33h1.683v-8.58h-1.683Zm5.56 8.69c.646 0 1.192-.125 1.64-.374.447-.25.806-.623 1.078-1.122l-1.496-.363c-.118.22-.283.385-.496.495-.212.11-.465.165-.758.165-.25 0-.466-.059-.65-.176a1.067 1.067 0 0 1-.395-.495 2 2 0 0 1-.121-.792c0-.257.022-.477.066-.66.05-.19.124-.348.22-.473a.855.855 0 0 1 .352-.275c.146-.066.315-.099.506-.099.19 0 .359.044.506.132a.804.804 0 0 1 .34.374c.074.154.11.345.11.572a.67.67 0 0 1-.032.187 1.175 1.175 0 0 1-.088.198l.396-.506h-3.124v.924h4.63c.008-.059.012-.125.012-.198v-.231c0-.543-.107-1.005-.32-1.386a2.08 2.08 0 0 0-.924-.869c-.403-.205-.898-.308-1.484-.308-.44 0-.837.062-1.189.187-.351.117-.652.29-.901.517-.25.227-.44.506-.572.836-.125.323-.188.69-.188 1.1 0 .535.118 1.001.352 1.397.235.396.565.704.99.924.433.213.947.319 1.54.319Zm5.36-5.17h-1.65V33h1.65v-5.06Zm1.463 1.727.726-1.441a.96.96 0 0 0-.385-.286 1.209 1.209 0 0 0-.528-.121 1.38 1.38 0 0 0-.814.275c-.25.183-.454.433-.616.748a2.334 2.334 0 0 0-.242 1.078l.396.583c0-.242.033-.447.1-.616a.817.817 0 0 1 .296-.374.708.708 0 0 1 .418-.132c.147 0 .268.026.363.077.103.051.198.121.286.209Z" fill="#333"/><g clip-path="url(#a)" fill="#333"><path d="M3.873 4.277c-.4.593-.6 1.265-.6 2.025 0 .55.104 1.082.322 1.614.209.533.452 1.048.722 1.545.079.14.174.35.296.646a14.37 14.37 0 0 1 .688 2.121c.087.393.139.76.139 1.091 0 .655-.096 1.3-.287 1.938a7.373 7.373 0 0 1-.81 1.789 7.45 7.45 0 0 1-1.27 1.51 6.942 6.942 0 0 1-1.68 1.135L0 16.819a3.787 3.787 0 0 0 1.602-1.449 3.844 3.844 0 0 0 .574-2.034c0-.14-.017-.287-.044-.445a5.675 5.675 0 0 0-.191-.646c-.096-.27-.252-.637-.453-1.09-.2-.454-.47-1.048-.81-1.772a6.739 6.739 0 0 1-.521-1.484A7.27 7.27 0 0 1 0 6.372c0-.655.087-1.292.27-1.92a7.286 7.286 0 0 1 .792-1.79 7.315 7.315 0 0 1 1.27-1.527A7.388 7.388 0 0 1 4.013 0l1.385 2.933a3.889 3.889 0 0 0-1.524 1.344Zm21.343 5.49a8.295 8.295 0 0 1-.697 3.36 9.072 9.072 0 0 1-1.87 2.767 8.768 8.768 0 0 1-2.76 1.868 8.367 8.367 0 0 1-3.351.68 8.367 8.367 0 0 1-3.351-.68 8.72 8.72 0 0 1-2.76-1.868 8.967 8.967 0 0 1-1.87-2.767 8.297 8.297 0 0 1-.697-3.36 8.15 8.15 0 0 1 .696-3.36 9.071 9.071 0 0 1 1.872-2.768 8.94 8.94 0 0 1 2.759-1.876 8.235 8.235 0 0 1 3.35-.698c1.185 0 2.299.235 3.352.698a9.045 9.045 0 0 1 2.76 1.876 8.968 8.968 0 0 1 1.87 2.767 8.295 8.295 0 0 1 .697 3.36Zm-3.23 0a5.2 5.2 0 0 0-.435-2.104 5.443 5.443 0 0 0-1.183-1.737 5.672 5.672 0 0 0-1.732-1.187 5.191 5.191 0 0 0-2.098-.436c-.74 0-1.445.148-2.098.436a5.295 5.295 0 0 0-1.723 1.187 5.639 5.639 0 0 0-1.167 1.737 5.231 5.231 0 0 0-.435 2.104c0 .742.14 1.449.435 2.103.288.663.68 1.24 1.167 1.728.487.498 1.07.882 1.723 1.17a5.192 5.192 0 0 0 2.098.436c.74 0 1.445-.14 2.098-.436a5.67 5.67 0 0 0 1.732-1.17 5.548 5.548 0 0 0 1.183-1.728 5.089 5.089 0 0 0 .436-2.103Zm23.205 0a8.297 8.297 0 0 1-.696 3.36 9.072 9.072 0 0 1-1.871 2.767 8.768 8.768 0 0 1-2.76 1.868 8.367 8.367 0 0 1-3.35.68 8.367 8.367 0 0 1-3.352-.68 8.72 8.72 0 0 1-2.759-1.868 8.968 8.968 0 0 1-1.871-2.767 8.297 8.297 0 0 1-.697-3.36 8.15 8.15 0 0 1 .697-3.36 9.073 9.073 0 0 1 1.871-2.768 8.941 8.941 0 0 1 2.76-1.876 8.235 8.235 0 0 1 3.35-.698c1.184 0 2.298.235 3.352.698a9.045 9.045 0 0 1 2.759 1.876 8.968 8.968 0 0 1 1.871 2.767 8.297 8.297 0 0 1 .696 3.36Zm-3.229 0c0-.742-.148-1.45-.435-2.104a5.441 5.441 0 0 0-1.184-1.737 5.672 5.672 0 0 0-1.732-1.187 5.192 5.192 0 0 0-2.098-.436c-.74 0-1.444.148-2.097.436a5.294 5.294 0 0 0-1.724 1.187 5.639 5.639 0 0 0-1.166 1.737 5.23 5.23 0 0 0-.435 2.104c0 .742.139 1.449.435 2.103.287.663.679 1.24 1.166 1.728a5.47 5.47 0 0 0 1.724 1.17 5.192 5.192 0 0 0 2.097.436c.74 0 1.445-.14 2.098-.436a5.67 5.67 0 0 0 1.732-1.17 5.546 5.546 0 0 0 1.184-1.728 5.087 5.087 0 0 0 .435-2.103Zm46.48-5.49c-.4.593-.6 1.265-.6 2.025 0 .55.104 1.082.321 1.614.21.533.453 1.048.723 1.545.078.14.174.35.296.646a14.379 14.379 0 0 1 .688 2.12c.086.394.139.76.139 1.092 0 .655-.096 1.3-.288 1.938a7.372 7.372 0 0 1-.81 1.789 7.453 7.453 0 0 1-1.27 1.51 6.943 6.943 0 0 1-1.68 1.134l-1.384-2.889a3.787 3.787 0 0 0 1.602-1.448c.383-.629.574-1.31.574-2.034 0-.14-.017-.288-.043-.445a5.677 5.677 0 0 0-.192-.646c-.096-.27-.252-.637-.453-1.091a87.8 87.8 0 0 0-.809-1.772 6.527 6.527 0 0 1-.522-1.475 7.274 7.274 0 0 1-.157-1.527c0-.655.087-1.292.27-1.92a7.29 7.29 0 0 1 .792-1.79 7.317 7.317 0 0 1 1.27-1.527A6.943 6.943 0 0 1 88.59-.01l1.385 2.933a4.006 4.006 0 0 0-1.532 1.353ZM60.084 14.48a8.264 8.264 0 0 1-.2-.489 5.818 5.818 0 0 1-1.288.777 5.192 5.192 0 0 1-2.098.436 5.02 5.02 0 0 1-2.097-.436 5.497 5.497 0 0 1-2.89-2.898 5.231 5.231 0 0 1-.435-2.103c0-.742.139-1.45.435-2.104a5.69 5.69 0 0 1 1.166-1.737 5.53 5.53 0 0 1 1.724-1.187 5.192 5.192 0 0 1 2.097-.436c.74 0 1.445.148 2.098.436.47.21.905.472 1.297.786A12.35 12.35 0 0 1 61.45 2.67a9.272 9.272 0 0 0-1.602-.908 8.235 8.235 0 0 0-3.35-.698 8.235 8.235 0 0 0-3.352.698 9.045 9.045 0 0 0-2.759 1.876 8.968 8.968 0 0 0-1.871 2.767 8.297 8.297 0 0 0-.697 3.36c0 1.188.227 2.305.697 3.36a9.072 9.072 0 0 0 1.871 2.768 8.768 8.768 0 0 0 2.76 1.868 8.367 8.367 0 0 0 3.35.68 8.366 8.366 0 0 0 3.351-.68 8.693 8.693 0 0 0 1.602-.9 12.42 12.42 0 0 1-1.367-2.382Zm21.691 1.536c-.749-1.065-.845-2.47-.845-3.901 0-.454.009-.908.009-1.37 0-1.292-.104-2.62-.522-3.858-.41-1.222-1.14-2.34-2.046-3.256a8.94 8.94 0 0 0-2.759-1.877 8.235 8.235 0 0 0-3.351-.698 8.235 8.235 0 0 0-3.351.698 9.045 9.045 0 0 0-2.76 1.877 8.967 8.967 0 0 0-1.87 2.767 8.297 8.297 0 0 0-.697 3.36c0 1.187.226 2.304.696 3.36a8.966 8.966 0 0 0 1.872 2.767 8.77 8.77 0 0 0 2.759 1.868 8.367 8.367 0 0 0 3.351.68 8.366 8.366 0 0 0 3.351-.68 8.722 8.722 0 0 0 2.76-1.868l.069-.07a5.757 5.757 0 0 0 1.123 2.095l2.21-1.894Zm-4.5-4.146a5.309 5.309 0 0 1-1.184 1.728 5.621 5.621 0 0 1-1.732 1.17 5.192 5.192 0 0 1-2.098.436c-.74 0-1.445-.148-2.098-.436a5.497 5.497 0 0 1-2.89-2.898 5.232 5.232 0 0 1-.435-2.103c0-.742.14-1.45.436-2.104a5.691 5.691 0 0 1 1.166-1.737 5.53 5.53 0 0 1 1.723-1.187 5.191 5.191 0 0 1 2.098-.436c.74 0 1.445.148 2.098.436a5.432 5.432 0 0 1 1.732 1.187 5.689 5.689 0 0 1 1.184 1.737c.287.664.435 1.362.435 2.104a5.383 5.383 0 0 1-.435 2.103Z"/></g><defs><clipPath id="a"><path fill="#fff" d="M0 0h90v19.708H0z"/></clipPath></defs></svg>