<svg width="137" height="30" fill="none" xmlns="http://www.w3.org/2000/svg"><g clip-path="url(#a)" fill="#333"><path d="M5.896 6.51c-.61.904-.914 1.927-.914 3.083 0 .837.159 1.647.49 2.457.318.81.689 1.595 1.1 2.352.119.213.265.532.45.983.186.452.371.957.557 1.502.185.558.344 1.129.49 1.727.132.598.212 1.156.212 1.66 0 .997-.146 1.98-.437 2.95-.292.97-.703 1.873-1.232 2.724-.53.837-1.18 1.607-1.935 2.298a10.565 10.565 0 0 1-2.557 1.727L0 25.603a5.765 5.765 0 0 0 2.438-2.206 5.854 5.854 0 0 0 .874-3.096 4.18 4.18 0 0 0-.066-.677 8.634 8.634 0 0 0-.291-.984c-.146-.412-.385-.97-.69-1.66a133.53 133.53 0 0 0-1.232-2.697 10.257 10.257 0 0 1-.795-2.26A11.068 11.068 0 0 1 0 9.7c0-.997.132-1.966.41-2.923.279-.957.676-1.86 1.206-2.724.53-.85 1.18-1.634 1.935-2.325A11.246 11.246 0 0 1 6.108 0l2.107 4.464A5.92 5.92 0 0 0 5.896 6.51Zm32.488 8.357a12.63 12.63 0 0 1-1.06 5.116 13.811 13.811 0 0 1-2.848 4.211 13.348 13.348 0 0 1-4.2 2.843 12.74 12.74 0 0 1-5.101 1.037c-1.802 0-3.498-.346-5.102-1.037a13.277 13.277 0 0 1-4.2-2.843 13.65 13.65 0 0 1-2.848-4.211 12.63 12.63 0 0 1-1.06-5.116c0-1.807.344-3.507 1.06-5.115a13.808 13.808 0 0 1 2.848-4.212 13.61 13.61 0 0 1 4.2-2.856 12.536 12.536 0 0 1 5.102-1.063c1.802 0 3.497.359 5.1 1.063a13.768 13.768 0 0 1 4.2 2.856 13.65 13.65 0 0 1 2.85 4.212 12.63 12.63 0 0 1 1.06 5.115Zm-4.915 0a7.907 7.907 0 0 0-.663-3.202 8.281 8.281 0 0 0-1.802-2.644 8.633 8.633 0 0 0-2.636-1.806 7.902 7.902 0 0 0-3.193-.665 7.85 7.85 0 0 0-3.194.665 8.058 8.058 0 0 0-2.623 1.806 8.585 8.585 0 0 0-1.775 2.644 7.962 7.962 0 0 0-.663 3.202c0 1.13.212 2.206.663 3.202a8.443 8.443 0 0 0 1.775 2.63c.742.758 1.63 1.343 2.623 1.781a7.903 7.903 0 0 0 3.194.665c1.126 0 2.199-.213 3.193-.665a8.635 8.635 0 0 0 2.636-1.78 8.444 8.444 0 0 0 1.802-2.63c.45-1.01.663-2.073.663-3.203Zm35.321 0a12.63 12.63 0 0 1-1.06 5.116 13.811 13.811 0 0 1-2.848 4.211 13.347 13.347 0 0 1-4.2 2.843 12.737 12.737 0 0 1-5.101 1.037c-1.802 0-3.498-.346-5.101-1.037a13.276 13.276 0 0 1-4.2-2.843 13.65 13.65 0 0 1-2.849-4.211 12.628 12.628 0 0 1-1.06-5.116c0-1.807.345-3.507 1.06-5.115A13.808 13.808 0 0 1 46.28 5.54a13.61 13.61 0 0 1 4.2-2.856 12.535 12.535 0 0 1 5.1-1.063c1.803 0 3.499.359 5.102 1.063a13.768 13.768 0 0 1 4.2 2.856 13.651 13.651 0 0 1 2.849 4.212 12.63 12.63 0 0 1 1.06 5.115Zm-4.915 0a7.922 7.922 0 0 0-.662-3.202 8.283 8.283 0 0 0-1.802-2.644 8.636 8.636 0 0 0-2.637-1.806 7.903 7.903 0 0 0-3.193-.665c-1.126 0-2.2.226-3.193.665a8.06 8.06 0 0 0-2.624 1.806 8.583 8.583 0 0 0-1.775 2.644 7.962 7.962 0 0 0-.663 3.202c0 1.13.212 2.206.663 3.202a8.442 8.442 0 0 0 1.775 2.63c.742.758 1.63 1.343 2.624 1.781a7.904 7.904 0 0 0 3.193.665c1.126 0 2.2-.213 3.193-.665a8.636 8.636 0 0 0 2.637-1.78 8.444 8.444 0 0 0 1.802-2.63c.45-1.01.662-2.073.662-3.203Zm70.754-8.357c-.61.904-.914 1.927-.914 3.083 0 .837.159 1.647.49 2.458.318.81.689 1.594 1.1 2.351.119.213.265.532.45.983.186.452.371.957.557 1.502.185.558.344 1.13.49 1.727.132.598.212 1.156.212 1.66 0 .997-.146 1.98-.437 2.95-.292.97-.703 1.873-1.233 2.724a11.342 11.342 0 0 1-1.934 2.298 10.574 10.574 0 0 1-2.557 1.728l-2.107-4.398a5.76 5.76 0 0 0 2.438-2.206 5.853 5.853 0 0 0 .874-3.095 4.15 4.15 0 0 0-.066-.678 8.771 8.771 0 0 0-.291-.983c-.146-.412-.385-.97-.689-1.66-.305-.692-.716-1.595-1.232-2.698a9.929 9.929 0 0 1-.795-2.245 11.067 11.067 0 0 1-.239-2.325c0-.997.133-1.967.411-2.923.278-.957.676-1.86 1.206-2.724a11.14 11.14 0 0 1 1.934-2.325 10.556 10.556 0 0 1 2.557-1.727l2.107 4.464a6.093 6.093 0 0 0-2.332 2.06ZM91.462 22.042c-.106-.24-.213-.492-.305-.744a8.862 8.862 0 0 1-1.961 1.182 7.904 7.904 0 0 1-3.193.665c-1.127 0-2.2-.213-3.193-.665a8.418 8.418 0 0 1-2.624-1.78c-.755-.744-1.338-1.634-1.775-2.63a7.962 7.962 0 0 1-.663-3.203c0-1.129.212-2.205.663-3.202a8.658 8.658 0 0 1 1.775-2.644 8.42 8.42 0 0 1 2.624-1.806 7.903 7.903 0 0 1 3.193-.665c1.126 0 2.2.226 3.193.665A9 9 0 0 1 91.17 8.41c.093-.239.186-.478.291-.717a18.798 18.798 0 0 1 2.08-3.627 14.113 14.113 0 0 0-2.437-1.382 12.535 12.535 0 0 0-5.101-1.063c-1.802 0-3.498.359-5.101 1.063a13.768 13.768 0 0 0-4.2 2.856 13.651 13.651 0 0 0-2.85 4.212 12.63 12.63 0 0 0-1.059 5.115c0 1.807.344 3.508 1.06 5.116a13.811 13.811 0 0 0 2.849 4.211 13.347 13.347 0 0 0 4.2 2.843 12.733 12.733 0 0 0 5.1 1.037c1.803 0 3.499-.346 5.102-1.037a13.233 13.233 0 0 0 2.438-1.368 18.904 18.904 0 0 1-2.08-3.627Zm33.017 2.338c-1.14-1.621-1.286-3.76-1.286-5.94 0-.69.014-1.38.014-2.085 0-1.966-.159-3.986-.795-5.873-.623-1.86-1.736-3.56-3.114-4.955a13.606 13.606 0 0 0-4.2-2.857 12.534 12.534 0 0 0-5.101-1.063c-1.802 0-3.498.36-5.101 1.063a13.761 13.761 0 0 0-4.2 2.857 13.647 13.647 0 0 0-2.849 4.212 12.628 12.628 0 0 0-1.06 5.115c0 1.807.345 3.507 1.06 5.115a13.646 13.646 0 0 0 2.849 4.211 13.343 13.343 0 0 0 4.2 2.844 12.735 12.735 0 0 0 5.101 1.036c1.802 0 3.498-.345 5.101-1.036a13.281 13.281 0 0 0 4.2-2.844l.106-.106a8.798 8.798 0 0 0 1.709 3.189l3.366-2.883Zm-6.85-6.311a8.102 8.102 0 0 1-1.802 2.63 8.564 8.564 0 0 1-2.637 1.78 7.904 7.904 0 0 1-3.193.665c-1.126 0-2.2-.226-3.193-.664a8.419 8.419 0 0 1-2.624-1.78c-.755-.744-1.338-1.635-1.775-2.631a7.966 7.966 0 0 1-.663-3.202c0-1.13.212-2.206.663-3.202a8.655 8.655 0 0 1 1.775-2.644 8.419 8.419 0 0 1 2.624-1.807 7.903 7.903 0 0 1 3.193-.664c1.126 0 2.199.226 3.193.664a8.268 8.268 0 0 1 2.637 1.807 8.677 8.677 0 0 1 1.802 2.644 7.965 7.965 0 0 1 .662 3.202 8.191 8.191 0 0 1-.662 3.202Z"/></g><defs><clipPath id="a"><path fill="#fff" d="M0 0h137v30H0z"/></clipPath></defs></svg>