<svg width="115" height="406" fill="none" xmlns="http://www.w3.org/2000/svg"><g clip-path="url(#a)"><rect x="-320" width="1170" height="406" rx="12" fill="#F8F8F8"/><mask id="b" style="mask-type:alpha" maskUnits="userSpaceOnUse" x="-320" y="0" width="1170" height="406"><rect x="-320" width="1170" height="406" rx="12" fill="#F8F8F8"/></mask><g mask="url(#b)"><circle cx="265" cy="203" r="264.5" stroke="#1E2535" stroke-opacity=".13"/><circle cx="-150" cy="203" r="264.5" stroke="#1E2535" stroke-opacity=".13"/><path d="M114.5 203c0 61.968-21.31 118.957-57 164.042C21.81 321.957.5 264.968.5 203s21.31-118.957 57-164.042c35.69 45.085 57 102.074 57 164.042Z" fill="#fff" stroke="#DCDDDF"/></g><path d="M43.64 209.96H70.8v-4.48H43.64v4.48ZM54.84 194v27.44h4.76V194h-4.76Z" fill="#000"/></g><defs><clipPath id="a"><path fill="#fff" d="M0 0h115v406H0z"/></clipPath></defs></svg>