<svg width="335" height="84" fill="none" xmlns="http://www.w3.org/2000/svg"><mask id="a" style="mask-type:alpha" maskUnits="userSpaceOnUse" x="0" y="0" width="335" height="84"><path transform="rotate(90 335 0)" fill="#D9D9D9" d="M335 0h84v335h-84z"/></mask><g mask="url(#a)" stroke="#DCDDDF"><path d="M167.5 397.822c-120.3 0-217.711-85.968-217.711-191.887S47.2 14.048 167.5 14.048c120.299 0 217.711 85.968 217.711 191.887S287.799 397.822 167.5 397.822Z"/><path d="M167.5 71.306c-120.3 0-217.711-85.968-217.711-191.887S47.2-312.468 167.5-312.468c120.299 0 217.711 85.968 217.711 191.887 0 105.92-97.412 191.887-217.711 191.887Z"/><path d="M167.5 71.306c-43.137 0-82.813-10.702-114.247-28.629 31.434-17.926 71.11-28.629 114.247-28.629s82.812 10.703 114.247 28.63c-31.435 17.926-71.11 28.628-114.247 28.628Z" fill="#fff"/></g><path d="M160.08 46.52h15.52v-2.4h-15.52v2.4Zm0-4.8h15.52v-2.4h-15.52v2.4Z" fill="#000"/></svg>