<svg width="62" height="245" fill="none" xmlns="http://www.w3.org/2000/svg"><mask id="a" style="mask-type:alpha" maskUnits="userSpaceOnUse" x="0" y="0" width="62" height="245"><path fill="#D9D9D9" d="M0 0h62v245H0z"/></mask><g mask="url(#a)" stroke="#DCDDDF"><path d="M293.5 122.5c0 87.918-63.405 159.087-141.5 159.087S10.5 210.418 10.5 122.5C10.5 34.582 73.905-36.587 152-36.587S293.5 34.583 293.5 122.5Z"/><path d="M52.5 122.5c0 87.918-63.405 159.087-141.5 159.087S-230.5 210.418-230.5 122.5c0-87.918 63.405-159.087 141.5-159.087S52.5 34.583 52.5 122.5Z"/><path d="M52.5 122.5c0 31.436-7.849 60.353-21 83.289-13.151-22.936-21-51.853-21-83.289s7.849-60.353 21-83.29c13.151 22.937 21 51.854 21 83.29Z" fill="#fff"/></g><path d="M23.08 127.12H38.6v-2.56H23.08v2.56Zm6.4-9.12v15.68h2.72V118h-2.72Z" fill="#000"/></svg>