<svg width="40" height="40" fill="none" xmlns="http://www.w3.org/2000/svg"><path d="M20 40c11.046 0 20-8.954 20-20S31.046 0 20 0 0 8.954 0 20s8.954 20 20 20Z" fill="url(#a)"/><path fill-rule="evenodd" clip-rule="evenodd" d="M9.044 19.784c5.828-2.532 9.708-4.213 11.657-5.03 5.545-2.314 6.71-2.714 7.46-2.73.166 0 .533.033.783.233.2.166.25.383.283.55.033.166.066.515.033.782-.3 3.164-1.599 10.84-2.265 14.371-.283 1.499-.832 1.998-1.365 2.048-1.166.1-2.049-.766-3.164-1.498-1.765-1.15-2.748-1.865-4.463-2.998-1.982-1.299-.7-2.015.433-3.18.3-.3 5.412-4.963 5.512-5.38.017-.05.017-.25-.1-.349-.117-.1-.283-.067-.416-.033-.184.033-2.981 1.898-8.427 5.578-.799.55-1.515.816-2.165.8-.716-.017-2.081-.4-3.114-.733-1.249-.4-2.248-.616-2.165-1.316.05-.366.55-.732 1.483-1.115Z" fill="#fff"/><defs><linearGradient id="a" x1="19.983" y1="0" x2="19.983" y2="39.684" gradientUnits="userSpaceOnUse"><stop stop-color="#2AABEE"/><stop offset="1" stop-color="#229ED9"/></linearGradient></defs></svg>