<svg width="40" height="40" fill="none" xmlns="http://www.w3.org/2000/svg"><path d="M0 19.2C0 10.149 0 5.624 2.812 2.812 5.624 0 10.149 0 19.2 0h1.6c9.051 0 13.576 0 16.388 2.812C40 5.624 40 10.149 40 19.2v1.6c0 9.051 0 13.576-2.812 16.388C34.376 40 29.851 40 20.8 40h-1.6c-9.051 0-13.576 0-16.388-2.812C0 34.376 0 29.851 0 20.8v-1.6Z" fill="#07F"/><path d="M21.283 28.817c-9.116 0-14.316-6.25-14.533-16.65h4.567c.15 7.633 3.516 10.866 6.183 11.533V12.167h4.3v6.583c2.633-.283 5.4-3.283 6.333-6.583h4.3c-.716 4.066-3.716 7.066-5.85 8.3 2.134 1 5.55 3.616 6.85 8.35H28.7c-1.017-3.167-3.55-5.617-6.9-5.95v5.95h-.517Z" fill="#fff"/></svg>