<svg width="16" height="16" fill="none" xmlns="http://www.w3.org/2000/svg"><path d="M10.68 1.83a6.267 6.267 0 0 0-8.85 0 6.267 6.267 0 0 0 0 8.85 6.218 6.218 0 0 0 4.425 1.834c1.37 0 2.668-.444 3.743-1.251l4.476 4.475a.891.891 0 0 0 1.264 0 .894.894 0 0 0 0-1.264l-4.475-4.476a6.204 6.204 0 0 0 1.25-3.743A6.218 6.218 0 0 0 10.68 1.83ZM3.094 9.416a4.476 4.476 0 0 1 0-6.322 4.458 4.458 0 0 1 3.161-1.307c1.145 0 2.29.435 3.161 1.307a4.442 4.442 0 0 1 1.31 3.161 4.442 4.442 0 0 1-1.31 3.161 4.442 4.442 0 0 1-3.16 1.31 4.442 4.442 0 0 1-3.162-1.31Z" fill="#888"/></svg>