<svg width="16" height="16" fill="none" xmlns="http://www.w3.org/2000/svg"><path d="M13.25 2H10.5v-.5A1.5 1.5 0 0 0 9 0H7a1.5 1.5 0 0 0-1.5 1.5V2H2.75c-.69 0-1.25.56-1.25 1.25v1a.5.5 0 0 0 .5.5h12a.5.5 0 0 0 .5-.5v-1c0-.69-.56-1.25-1.25-1.25ZM6.5 1.5A.5.5 0 0 1 7 1h2a.5.5 0 0 1 .5.5V2h-3v-.5ZM2.45 5.75a.157.157 0 0 0-.157.164l.413 8.657A1.498 1.498 0 0 0 4.204 16h7.593c.802 0 1.46-.627 1.498-1.429l.412-8.657a.156.156 0 0 0-.155-.164H2.449ZM10 7a.5.5 0 1 1 1 0v6.5a.5.5 0 1 1-1 0V7ZM7.5 7a.5.5 0 1 1 1 0v6.5a.5.5 0 1 1-1 0V7ZM5 7a.5.5 0 1 1 1 0v6.5a.5.5 0 1 1-1 0V7Z" opacity=".2" fill="#000"/></svg>