<svg width="84" height="24" fill="none" xmlns="http://www.w3.org/2000/svg"><path d="M66.407.057h9.19a8.37 8.37 0 0 1 5.91 2.443 8.334 8.334 0 0 1 2.448 5.898v7.19a8.326 8.326 0 0 1-2.448 5.898 8.361 8.361 0 0 1-5.91 2.443h-9.19a8.373 8.373 0 0 1-5.91-2.443 8.34 8.34 0 0 1-2.448-5.898v-7.19c0-4.607 3.74-8.341 8.358-8.341Z" fill="#FFDD3D"/><path d="M68.6 13.554v-.405h-2.446v-1.804h4.768v2.146c0 3.376-1.615 5.338-4.673 5.338-3.152 0-4.983-2.479-4.983-6.848 0-4.261 1.998-6.87 5.664-6.87 1.385 0 2.579.366 3.231.843V7.81a6.012 6.012 0 0 0-3.12-.898c-2.404 0-3.423 1.629-3.423 5.069 0 3.336.844 5.043 2.675 5.043 1.75.01 2.306-1.341 2.306-3.47Zm12.212.254c0 3.242-1.751 5.029-4.27 5.029-2.518 0-4.27-1.787-4.27-5.005 0-3.242 1.752-5.029 4.27-5.029 2.519 0 4.27 1.78 4.27 5.005Zm-2.364 0c0-2.224-.637-3.201-1.903-3.201s-1.902.977-1.902 3.225c0 2.224.637 3.202 1.902 3.202s1.903-.985 1.903-3.226ZM6.56 7.111H5.514c-1.9 0-2.9.961-2.9 2.383 0 1.613.692 2.36 2.118 3.32l1.17.788-3.384 5.043H0l3.033-4.512C1.282 12.886.303 11.68.303 9.622c0-2.574 1.788-4.314 5.187-4.314h3.382v13.338h-2.32V7.111h.008Zm11.877 1.883v9.652h-2.284v-4.028h-3.058v4.028H10.81V8.994h2.285v3.82h3.058v-3.82h2.284Zm10.325 11.853h-2.117v-2.209H21.51v2.209h-2.118v-4.008h.717c.804-1.613.963-4.663.963-7.022V8.99h6.67v7.85h1.02v4.007Zm-3.304-10.05h-2.42v.287c0 1.667-.174 4.297-.812 5.759h3.232v-6.046Zm8.438 8.032c-2.92 0-4.577-1.629-4.577-4.989 0-2.916 1.33-5.043 4.116-5.043 2.285 0 3.765 1.27 3.765 4.623v1.207h-5.516c.095 1.613.732 2.4 2.404 2.4 1.114 0 2.308-.422 3.017-.906v1.866c-.669.46-1.744.842-3.209.842Zm-2.212-5.887h3.192v-.19c0-1.207-.349-2.144-1.482-2.144-1.09-.01-1.646.8-1.71 2.334Zm9.345.961v4.743h-2.292V8.994h2.292v4.449l3.237-4.449h2.309l-3.232 4.449 3.67 5.195h-2.6l-3.384-4.735Zm5.851-.079c0-2.94 1.521-5.028 4.444-5.028 1.133 0 1.983.19 2.46.46v1.939c-.461-.286-1.33-.597-2.213-.597-1.497 0-2.325 1.073-2.325 3.17 0 1.995.677 3.265 2.31 3.265.962 0 1.655-.246 2.228-.651v1.859c-.557.405-1.307.596-2.364.596-3.059-.008-4.54-1.787-4.54-5.013Z" fill="#000"/></svg>