<svg width="15" height="20" fill="none" xmlns="http://www.w3.org/2000/svg"><path fill-rule="evenodd" clip-rule="evenodd" d="M7.615 0c-2.29 0-4.154 1.835-4.154 4.09v1.82H.692A.687.687 0 0 0 0 6.59v11.364C0 19.083.932 20 2.077 20h10.846C14.068 20 15 19.083 15 17.955V6.59a.687.687 0 0 0-.692-.682h-2.54V4.091C11.769 1.835 9.906 0 7.616 0ZM4.153 10.455a.687.687 0 0 1-.692-.682v-2.5H1.385v10.682c0 .376.31.681.692.681h10.846a.688.688 0 0 0 .692-.681V7.273H11.77v2.5c0 .376-.31.682-.693.682a.687.687 0 0 1-.692-.682v-2.5H4.846v2.5c0 .376-.31.682-.693.682Zm3.462-9.091c-1.527 0-2.77 1.223-2.77 2.727v1.818h5.54V4.091c0-1.504-1.243-2.727-2.77-2.727Z" fill="#fff"/><path fill-rule="evenodd" clip-rule="evenodd" d="M7.615 0c-2.29 0-4.154 1.835-4.154 4.09v1.82H.692A.687.687 0 0 0 0 6.59v11.364C0 19.083.932 20 2.077 20h10.846C14.068 20 15 19.083 15 17.955V6.59a.687.687 0 0 0-.692-.682h-2.54V4.091C11.769 1.835 9.906 0 7.616 0ZM4.153 10.455a.687.687 0 0 1-.692-.682v-2.5H1.385v10.682c0 .376.31.681.692.681h10.846a.688.688 0 0 0 .692-.681V7.273H11.77v2.5c0 .376-.31.682-.693.682a.687.687 0 0 1-.692-.682v-2.5H4.846v2.5c0 .376-.31.682-.693.682Zm3.462-9.091c-1.527 0-2.77 1.223-2.77 2.727v1.818h5.54V4.091c0-1.504-1.243-2.727-2.77-2.727Z" fill="#fff"/></svg>