<svg width="137" height="30" fill="none" xmlns="http://www.w3.org/2000/svg"><path d="M5.896 6.51c-.61.904-.914 1.927-.914 3.083 0 .837.159 1.647.49 2.457.318.81.689 1.595 1.1 2.352.119.213.265.532.45.983.186.452.371.957.557 1.502.185.558.344 1.129.49 1.727.132.598.212 1.156.212 1.66 0 .997-.146 1.98-.437 2.95-.292.97-.703 1.873-1.232 2.724-.53.837-1.18 1.607-1.935 2.298a10.565 10.565 0 0 1-2.557 1.727L0 25.603a5.765 5.765 0 0 0 2.438-2.206 5.854 5.854 0 0 0 .874-3.096 4.18 4.18 0 0 0-.066-.677 8.634 8.634 0 0 0-.291-.984c-.146-.412-.385-.97-.69-1.66a133.53 133.53 0 0 0-1.232-2.697 10.257 10.257 0 0 1-.795-2.26A11.068 11.068 0 0 1 0 9.7c0-.997.132-1.966.41-2.923.279-.957.676-1.86 1.206-2.724.53-.85 1.18-1.634 1.935-2.325A11.246 11.246 0 0 1 6.108 0l2.107 4.464A5.92 5.92 0 0 0 5.896 6.51Zm32.488 8.357a12.63 12.63 0 0 1-1.06 5.115 13.81 13.81 0 0 1-2.848 4.212 13.345 13.345 0 0 1-4.2 2.843 12.74 12.74 0 0 1-5.101 1.037c-1.802 0-3.498-.346-5.102-1.037a13.275 13.275 0 0 1-4.2-2.843 13.65 13.65 0 0 1-2.848-4.212 12.63 12.63 0 0 1-1.06-5.115c0-1.807.344-3.507 1.06-5.115a13.808 13.808 0 0 1 2.848-4.212 13.61 13.61 0 0 1 4.2-2.856 12.536 12.536 0 0 1 5.102-1.063c1.802 0 3.497.359 5.1 1.063a13.768 13.768 0 0 1 4.2 2.856 13.65 13.65 0 0 1 2.85 4.212 12.63 12.63 0 0 1 1.06 5.115Zm-4.915 0c0-1.13-.225-2.205-.663-3.202a8.282 8.282 0 0 0-1.802-2.644 8.633 8.633 0 0 0-2.636-1.807 7.902 7.902 0 0 0-3.193-.664c-1.127 0-2.2.226-3.194.664a8.058 8.058 0 0 0-2.623 1.807 8.586 8.586 0 0 0-1.775 2.644 7.963 7.963 0 0 0-.663 3.202c0 1.13.212 2.206.663 3.202a8.442 8.442 0 0 0 1.775 2.63c.742.758 1.63 1.343 2.623 1.781a7.903 7.903 0 0 0 3.194.664c1.126 0 2.199-.212 3.193-.664a8.633 8.633 0 0 0 2.636-1.78 8.443 8.443 0 0 0 1.802-2.631c.45-1.01.663-2.073.663-3.202Zm35.321 0a12.63 12.63 0 0 1-1.06 5.115 13.81 13.81 0 0 1-2.848 4.212 13.344 13.344 0 0 1-4.2 2.843 12.737 12.737 0 0 1-5.101 1.037c-1.802 0-3.498-.346-5.101-1.037a13.274 13.274 0 0 1-4.2-2.843 13.649 13.649 0 0 1-2.849-4.212 12.628 12.628 0 0 1-1.06-5.115c0-1.807.345-3.507 1.06-5.115A13.808 13.808 0 0 1 46.28 5.54a13.61 13.61 0 0 1 4.2-2.856 12.535 12.535 0 0 1 5.1-1.063c1.803 0 3.499.359 5.102 1.063a13.768 13.768 0 0 1 4.2 2.856 13.651 13.651 0 0 1 2.849 4.212 12.63 12.63 0 0 1 1.06 5.115Zm-4.915 0c0-1.13-.225-2.205-.662-3.202a8.284 8.284 0 0 0-1.802-2.644 8.636 8.636 0 0 0-2.637-1.807 7.903 7.903 0 0 0-3.193-.664c-1.126 0-2.2.226-3.193.664a8.06 8.06 0 0 0-2.624 1.807 8.584 8.584 0 0 0-1.775 2.644 7.963 7.963 0 0 0-.663 3.202c0 1.13.212 2.206.663 3.202a8.442 8.442 0 0 0 1.775 2.63c.742.758 1.63 1.343 2.624 1.781a7.904 7.904 0 0 0 3.193.664c1.126 0 2.2-.212 3.193-.664a8.634 8.634 0 0 0 2.637-1.78 8.443 8.443 0 0 0 1.802-2.631c.45-1.01.662-2.073.662-3.202Zm70.754-8.357c-.61.904-.914 1.927-.914 3.083 0 .837.159 1.647.49 2.457.318.81.689 1.595 1.1 2.352.119.213.265.532.45.983.186.452.371.957.557 1.502.185.558.344 1.129.49 1.727.132.598.212 1.156.212 1.66 0 .997-.146 1.98-.437 2.95-.292.97-.703 1.873-1.233 2.724a11.347 11.347 0 0 1-1.934 2.298 10.574 10.574 0 0 1-2.557 1.727l-2.107-4.397a5.76 5.76 0 0 0 2.438-2.206 5.853 5.853 0 0 0 .874-3.095 4.15 4.15 0 0 0-.066-.678 8.771 8.771 0 0 0-.291-.983 27.13 27.13 0 0 0-.689-1.661 139.12 139.12 0 0 0-1.232-2.697 9.93 9.93 0 0 1-.795-2.245 11.067 11.067 0 0 1-.239-2.325c0-.997.133-1.967.411-2.923.278-.957.676-1.86 1.206-2.724a11.14 11.14 0 0 1 1.934-2.325 10.556 10.556 0 0 1 2.557-1.727l2.107 4.464a6.093 6.093 0 0 0-2.332 2.06ZM91.462 22.042c-.106-.24-.213-.492-.305-.745a8.862 8.862 0 0 1-1.961 1.183 7.904 7.904 0 0 1-3.193.664c-1.127 0-2.2-.212-3.193-.664a8.416 8.416 0 0 1-2.624-1.78c-.755-.744-1.338-1.634-1.775-2.631a7.96 7.96 0 0 1-.663-3.202c0-1.13.212-2.205.663-3.202a8.66 8.66 0 0 1 1.775-2.644 8.42 8.42 0 0 1 2.624-1.807 7.903 7.903 0 0 1 3.193-.664c1.126 0 2.2.226 3.193.664A9 9 0 0 1 91.17 8.41a18.798 18.798 0 0 1 2.372-4.345 14.112 14.112 0 0 0-2.438-1.381 12.535 12.535 0 0 0-5.101-1.063c-1.802 0-3.498.359-5.101 1.063a13.768 13.768 0 0 0-4.2 2.856 13.651 13.651 0 0 0-2.85 4.212 12.63 12.63 0 0 0-1.059 5.115c0 1.807.344 3.508 1.06 5.115a13.81 13.81 0 0 0 2.849 4.212 13.344 13.344 0 0 0 4.2 2.843 12.733 12.733 0 0 0 5.1 1.037c1.803 0 3.499-.346 5.102-1.037a13.238 13.238 0 0 0 2.438-1.368 18.907 18.907 0 0 1-2.08-3.627Zm33.017 2.338c-1.14-1.62-1.286-3.76-1.286-5.939 0-.69.014-1.382.014-2.086 0-1.966-.159-3.986-.795-5.872-.623-1.86-1.736-3.56-3.114-4.956a13.606 13.606 0 0 0-4.2-2.856 12.534 12.534 0 0 0-5.101-1.063 12.52 12.52 0 0 0-5.101 1.063 13.762 13.762 0 0 0-4.2 2.856 13.647 13.647 0 0 0-2.849 4.212 12.628 12.628 0 0 0-1.06 5.115c0 1.807.345 3.507 1.06 5.115a13.646 13.646 0 0 0 2.849 4.212 13.343 13.343 0 0 0 4.2 2.843 12.737 12.737 0 0 0 5.101 1.036c1.802 0 3.498-.345 5.101-1.036a13.28 13.28 0 0 0 4.2-2.843l.106-.107a8.798 8.798 0 0 0 1.709 3.19l3.366-2.884Zm-6.85-6.31a8.101 8.101 0 0 1-1.802 2.63 8.564 8.564 0 0 1-2.637 1.78 7.902 7.902 0 0 1-3.193.664c-1.126 0-2.2-.225-3.193-.664a8.418 8.418 0 0 1-2.624-1.78c-.755-.744-1.338-1.634-1.775-2.63a7.966 7.966 0 0 1-.663-3.203c0-1.13.212-2.205.663-3.202a8.655 8.655 0 0 1 1.775-2.644 8.419 8.419 0 0 1 2.624-1.807 7.903 7.903 0 0 1 3.193-.664c1.126 0 2.199.226 3.193.664a8.268 8.268 0 0 1 2.637 1.807 8.678 8.678 0 0 1 1.802 2.644 7.966 7.966 0 0 1 .662 3.202 8.191 8.191 0 0 1-.662 3.202Z" fill="#fff"/></svg>