<svg width="20" height="20" fill="none" xmlns="http://www.w3.org/2000/svg"><path d="M13.35 2.287c-3.05-3.05-8.012-3.05-11.063 0-3.05 3.05-3.05 8.014 0 11.063a7.772 7.772 0 0 0 5.532 2.292 7.754 7.754 0 0 0 4.679-1.564l5.594 5.595a1.114 1.114 0 0 0 1.58 0 1.117 1.117 0 0 0 0-1.58l-5.594-5.595a7.754 7.754 0 0 0 1.564-4.679c0-2.09-.814-4.054-2.292-5.532ZM3.867 11.77a5.595 5.595 0 0 1 0-7.903A5.572 5.572 0 0 1 7.82 2.233a5.57 5.57 0 0 1 3.95 1.634 5.552 5.552 0 0 1 1.638 3.952 5.552 5.552 0 0 1-1.637 3.95 5.552 5.552 0 0 1-3.95 1.638 5.552 5.552 0 0 1-3.953-1.637Z" fill="#fff"/></svg>