<svg width="20" height="20" fill="none" xmlns="http://www.w3.org/2000/svg"><path d="M13.392 9.747A5.451 5.451 0 0 0 15.278 7a5.407 5.407 0 0 0-.074-3.323 5.456 5.456 0 0 0-2.007-2.663 5.533 5.533 0 0 0-6.387 0 5.457 5.457 0 0 0-2.006 2.663A5.407 5.407 0 0 0 4.73 7a5.45 5.45 0 0 0 1.886 2.748c-1.704.672-4 1.835-5.03 3.339A9.04 9.04 0 0 0 0 18.183v.908a.91.91 0 0 0 .268.643.92.92 0 0 0 .649.266h18.166a.92.92 0 0 0 .649-.266.905.905 0 0 0 .268-.643v-.908a9.038 9.038 0 0 0-1.583-5.096c-1.03-1.503-3.323-2.667-5.025-3.34ZM6.333 5.461c0-.72.215-1.422.618-2.02a3.66 3.66 0 0 1 1.646-1.338 3.696 3.696 0 0 1 3.996.788 3.605 3.605 0 0 1 .795 3.961 3.642 3.642 0 0 1-1.35 1.631 3.69 3.69 0 0 1-4.63-.452 3.619 3.619 0 0 1-1.075-2.57Zm-4.5 12.722c0-1.928.773-3.777 2.148-5.14 1.375-1.364 4.074-2.13 6.019-2.13 1.945 0 4.643.766 6.019 2.13a7.238 7.238 0 0 1 2.148 5.14H1.833Z" fill="#fff"/></svg>