<svg width="41" height="37" fill="none" xmlns="http://www.w3.org/2000/svg"><path d="m22.37 27.539 5.13-2.962 5.13 2.962v5.922l-5.13 2.962-5.13-2.962V27.54Zm0-24L27.5.577l5.13 2.962V9.46l-5.13 2.962-5.13-2.962V3.54Zm7 12 5.13-2.962 5.13 2.962v5.922l-5.13 2.962-5.13-2.962V15.54Zm-21 12 5.13-2.962 5.13 2.962v5.922l-5.13 2.962-5.13-2.962V27.54Zm0-24L13.5.577l5.13 2.962V9.46l-5.13 2.962L8.37 9.46V3.54Zm-7 12 5.13-2.962 5.13 2.962v5.922L6.5 24.423 1.37 21.46v-5.92Zm14 0 5.13-2.962 5.13 2.962v5.922l-5.13 2.962-5.13-2.962V15.54Z" opacity=".3" stroke="#000"/></svg>