<svg width="213" height="52" fill="none" xmlns="http://www.w3.org/2000/svg"><path d="M9.884 9.479A12 12 0 0 1 21.817.199L197.66 3.785a12 12 0 0 1 11.68 10.656l2.196 19.528c.787 7.002-4.599 13.172-11.643 13.338l-184.418 4.33c-7.84.184-13.746-7.077-11.97-14.714l6.38-27.444Z" fill="url(#a)"/><path d="m192.801 25.52-4.318-4.321a.679.679 0 1 0-.96.96l3.16 3.162h-15.004a.679.679 0 0 0 0 1.358h15.004l-3.16 3.162a.68.68 0 0 0 .96.96l4.318-4.32a.68.68 0 0 0 0-.961ZM23.408 29.336l-2.592 1.752c.288.832.72 1.576 1.296 2.232a6.492 6.492 0 0 0 2.088 1.536c.816.384 1.72.576 2.712.576.816 0 1.592-.136 2.328-.408a7.116 7.116 0 0 0 2.04-1.08 5.725 5.725 0 0 0 1.464-1.704 4.87 4.87 0 0 0 .648-2.208c.032-.64-.048-1.216-.24-1.728a3.983 3.983 0 0 0-.768-1.344c-.32-.4-.704-.744-1.152-1.032a8.263 8.263 0 0 0-1.392-.744c-.432-.16-.848-.328-1.248-.504a6.96 6.96 0 0 1-1.032-.576 2.872 2.872 0 0 1-.696-.696 1.334 1.334 0 0 1-.192-.864 1.64 1.64 0 0 1 .288-.864c.192-.272.448-.48.768-.624.336-.144.728-.216 1.176-.216.512 0 .952.104 1.32.312.384.192.704.456.96.792.272.32.504.664.696 1.032l2.76-1.464a6.095 6.095 0 0 0-1.104-1.776 5.265 5.265 0 0 0-1.8-1.344c-.72-.352-1.568-.528-2.544-.528-1.088 0-2.08.208-2.976.624-.88.4-1.592.96-2.136 1.68-.528.704-.824 1.528-.888 2.472-.048.688.04 1.296.264 1.824.24.512.552.968.936 1.368.384.384.792.712 1.224.984.448.256.88.48 1.296.672.576.272 1.088.52 1.536.744.448.208.792.472 1.032.792.24.304.344.688.312 1.152a2.035 2.035 0 0 1-.384 1.128 2.46 2.46 0 0 1-.936.816c-.4.208-.864.312-1.392.312-.592 0-1.12-.136-1.584-.408a4.332 4.332 0 0 1-1.2-1.104 8.321 8.321 0 0 1-.888-1.584ZM39.176 26.6a6.875 6.875 0 0 1 .72-2.112 7.287 7.287 0 0 1 1.368-1.752 5.91 5.91 0 0 1 1.848-1.224 5.66 5.66 0 0 1 2.208-.432c.784.016 1.448.176 1.992.48.56.304 1 .72 1.32 1.248.336.528.56 1.12.672 1.776a6.09 6.09 0 0 1 0 2.016 6.964 6.964 0 0 1-.768 2.112 7.221 7.221 0 0 1-1.344 1.776 5.828 5.828 0 0 1-1.824 1.2 5.307 5.307 0 0 1-2.184.408c-.768 0-1.432-.152-1.992-.456a3.601 3.601 0 0 1-1.344-1.248 5.385 5.385 0 0 1-.672-1.776 6.09 6.09 0 0 1 0-2.016Zm-3.576 0a8.738 8.738 0 0 0 .12 3.36 7.455 7.455 0 0 0 1.32 2.808 6.901 6.901 0 0 0 2.424 1.944c.976.48 2.104.72 3.384.72a9.723 9.723 0 0 0 3.6-.672 10.5 10.5 0 0 0 3.048-1.896c.896-.816 1.64-1.76 2.232-2.832a10.657 10.657 0 0 0 1.176-3.432c.16-1.168.104-2.28-.168-3.336a6.884 6.884 0 0 0-1.368-2.784 6.668 6.668 0 0 0-2.424-1.92c-.96-.464-2.064-.696-3.312-.696-1.28 0-2.488.224-3.624.672a10.185 10.185 0 0 0-3.024 1.872 10.247 10.247 0 0 0-2.232 2.784A10.472 10.472 0 0 0 35.6 26.6Zm22.467 0a6.875 6.875 0 0 1 .72-2.112 7.287 7.287 0 0 1 1.368-1.752 5.91 5.91 0 0 1 1.848-1.224 5.66 5.66 0 0 1 2.208-.432c.784.016 1.448.176 1.992.48.56.304 1 .72 1.32 1.248.336.528.56 1.12.672 1.776a6.09 6.09 0 0 1 0 2.016 6.964 6.964 0 0 1-.768 2.112 7.221 7.221 0 0 1-1.344 1.776 5.828 5.828 0 0 1-1.824 1.2 5.307 5.307 0 0 1-2.184.408c-.768 0-1.432-.152-1.992-.456a3.601 3.601 0 0 1-1.344-1.248 5.385 5.385 0 0 1-.672-1.776 6.09 6.09 0 0 1 0-2.016Zm-3.576 0a8.738 8.738 0 0 0 .12 3.36 7.455 7.455 0 0 0 1.32 2.808 6.901 6.901 0 0 0 2.424 1.944c.976.48 2.104.72 3.384.72a9.723 9.723 0 0 0 3.6-.672 10.5 10.5 0 0 0 3.048-1.896c.896-.816 1.64-1.76 2.232-2.832a10.657 10.657 0 0 0 1.176-3.432c.16-1.168.104-2.28-.168-3.336a6.884 6.884 0 0 0-1.368-2.784 6.668 6.668 0 0 0-2.424-1.92c-.96-.464-2.064-.696-3.312-.696-1.28 0-2.488.224-3.624.672a10.185 10.185 0 0 0-3.024 1.872 10.247 10.247 0 0 0-2.232 2.784A10.472 10.472 0 0 0 54.49 26.6Zm22.562 0a6.219 6.219 0 0 1 .768-2.16 6.648 6.648 0 0 1 1.416-1.704 6.206 6.206 0 0 1 1.896-1.128 6.186 6.186 0 0 1 2.16-.432c.688 0 1.312.096 1.872.288.56.192 1.056.464 1.488.816.448.336.84.736 1.176 1.2l.6-3.888a7.108 7.108 0 0 0-2.184-1.296c-.768-.288-1.68-.432-2.736-.432a9.853 9.853 0 0 0-3.648.672 10.696 10.696 0 0 0-3.072 1.848 9.705 9.705 0 0 0-2.256 2.76 10.486 10.486 0 0 0-1.152 3.456c-.176 1.216-.136 2.352.12 3.408a7.147 7.147 0 0 0 1.392 2.76 7.14 7.14 0 0 0 2.448 1.872c.992.448 2.12.672 3.384.672 1.104 0 2.08-.152 2.928-.456.864-.304 1.68-.72 2.448-1.248l.552-3.864c-.464.416-.976.8-1.536 1.152a8.024 8.024 0 0 1-1.8.816 6.488 6.488 0 0 1-2.112.288c-.736 0-1.392-.136-1.968-.408a3.872 3.872 0 0 1-1.392-1.2 4.691 4.691 0 0 1-.768-1.728c-.144-.64-.152-1.328-.024-2.064Zm14.573 4.608h8.664l.072-2.76h-7.896l-.84 2.76Zm5.592-7.536 1.44 5.808-.144.912L99.738 35h3.768l-5.232-17.856L86.898 35h3.936l2.928-4.752.072-.792 3.384-5.784Zm10.378 5.664-2.592 1.752c.288.832.72 1.576 1.296 2.232a6.492 6.492 0 0 0 2.088 1.536c.816.384 1.72.576 2.712.576.816 0 1.592-.136 2.328-.408a7.116 7.116 0 0 0 2.04-1.08 5.725 5.725 0 0 0 1.464-1.704 4.87 4.87 0 0 0 .648-2.208c.032-.64-.048-1.216-.24-1.728a3.983 3.983 0 0 0-.768-1.344c-.32-.4-.704-.744-1.152-1.032a8.263 8.263 0 0 0-1.392-.744c-.432-.16-.848-.328-1.248-.504a6.96 6.96 0 0 1-1.032-.576 2.872 2.872 0 0 1-.696-.696 1.334 1.334 0 0 1-.192-.864 1.64 1.64 0 0 1 .288-.864c.192-.272.448-.48.768-.624.336-.144.728-.216 1.176-.216.512 0 .952.104 1.32.312.384.192.704.456.96.792.272.32.504.664.696 1.032l2.76-1.464a6.095 6.095 0 0 0-1.104-1.776 5.265 5.265 0 0 0-1.8-1.344c-.72-.352-1.568-.528-2.544-.528-1.088 0-2.08.208-2.976.624-.88.4-1.592.96-2.136 1.68-.528.704-.824 1.528-.888 2.472-.048.688.04 1.296.264 1.824.24.512.552.968.936 1.368.384.384.792.712 1.224.984.448.256.88.48 1.296.672.576.272 1.088.52 1.536.744.448.208.792.472 1.032.792.24.304.344.688.312 1.152a2.035 2.035 0 0 1-.384 1.128 2.46 2.46 0 0 1-.936.816c-.4.208-.864.312-1.392.312-.592 0-1.12-.136-1.584-.408a4.332 4.332 0 0 1-1.2-1.104 8.321 8.321 0 0 1-.888-1.584Zm21.187 0-2.592 1.752c.288.832.72 1.576 1.296 2.232a6.492 6.492 0 0 0 2.088 1.536c.816.384 1.72.576 2.712.576.816 0 1.592-.136 2.328-.408a7.116 7.116 0 0 0 2.04-1.08 5.725 5.725 0 0 0 1.464-1.704 4.87 4.87 0 0 0 .648-2.208c.032-.64-.048-1.216-.24-1.728a3.983 3.983 0 0 0-.768-1.344c-.32-.4-.704-.744-1.152-1.032a8.263 8.263 0 0 0-1.392-.744c-.432-.16-.848-.328-1.248-.504a6.96 6.96 0 0 1-1.032-.576 2.872 2.872 0 0 1-.696-.696 1.334 1.334 0 0 1-.192-.864 1.64 1.64 0 0 1 .288-.864c.192-.272.448-.48.768-.624.336-.144.728-.216 1.176-.216.512 0 .952.104 1.32.312.384.192.704.456.96.792.272.32.504.664.696 1.032l2.76-1.464a6.095 6.095 0 0 0-1.104-1.776 5.265 5.265 0 0 0-1.8-1.344c-.72-.352-1.568-.528-2.544-.528-1.088 0-2.08.208-2.976.624-.88.4-1.592.96-2.136 1.68-.528.704-.824 1.528-.888 2.472-.048.688.04 1.296.264 1.824.24.512.552.968.936 1.368.384.384.792.712 1.224.984.448.256.88.48 1.296.672.576.272 1.088.52 1.536.744.448.208.792.472 1.032.792.24.304.344.688.312 1.152a2.035 2.035 0 0 1-.384 1.128 2.46 2.46 0 0 1-.936.816c-.4.208-.864.312-1.392.312-.592 0-1.12-.136-1.584-.408a4.332 4.332 0 0 1-1.2-1.104 8.321 8.321 0 0 1-.888-1.584Zm17.688-2.568c.832 0 1.648-.08 2.448-.24.8-.16 1.528-.408 2.184-.744a5.255 5.255 0 0 0 1.656-1.32c.432-.528.704-1.184.816-1.968.128-.848 0-1.616-.384-2.304-.368-.704-.936-1.256-1.704-1.656-.752-.4-1.64-.608-2.664-.624-1.088 0-2.056.216-2.904.648a5.766 5.766 0 0 0-2.088 1.776 6.23 6.23 0 0 0-1.08 2.544h3.144c.096-.368.272-.712.528-1.032.256-.336.56-.6.912-.792a2.492 2.492 0 0 1 1.248-.312c.4.016.728.112.984.288.272.176.456.408.552.696.112.288.144.608.096.96-.064.384-.2.72-.408 1.008-.208.272-.48.52-.816.744a4.47 4.47 0 0 1-1.08.504 5.924 5.924 0 0 1-1.224.216l-.216 1.608Zm-.312 8.544c1.136 0 2.184-.192 3.144-.576.96-.384 1.752-.944 2.376-1.68a5.044 5.044 0 0 0 1.152-2.592c.112-.864.016-1.592-.288-2.184a3.627 3.627 0 0 0-1.344-1.44c-.592-.368-1.288-.64-2.088-.816-.8-.192-1.632-.304-2.496-.336l-.264 1.824c.496.032.952.104 1.368.216.416.112.768.272 1.056.48.304.192.52.448.648.768.128.304.16.68.096 1.128-.08.48-.264.904-.552 1.272a2.888 2.888 0 0 1-1.08.816 2.99 2.99 0 0 1-1.368.264c-.512 0-.944-.104-1.296-.312a1.99 1.99 0 0 1-.768-.888c-.176-.384-.248-.824-.216-1.32h-3.336a5.319 5.319 0 0 0 .216 2.088c.208.64.536 1.216.984 1.728.464.496 1.032.88 1.704 1.152.672.272 1.456.408 2.352.408Zm10.25-12.696 4.08-1.008L158.185 35h3.312l2.952-17.112-7.488 1.56-.552 3.168Z" fill="#fff"/><defs><linearGradient id="a" x1="213" y1="-5" x2="-33" y2="57" gradientUnits="userSpaceOnUse"><stop stop-color="#FF7921"/><stop offset="1" stop-color="#FEC00F"/></linearGradient></defs></svg>