<svg width="30" height="30" fill="none" xmlns="http://www.w3.org/2000/svg"><path d="m11.25 15 2.5 2.5 5.625-5.625m3.002-5.627a2.54 2.54 0 0 0 1.373 1.376l2.181.903a2.54 2.54 0 0 1 1.376 3.32l-.903 2.18a2.537 2.537 0 0 0 0 1.946l.902 2.18a2.54 2.54 0 0 1-1.376 3.32l-2.18.903a2.54 2.54 0 0 0-1.375 1.374l-.904 2.181a2.54 2.54 0 0 1-3.32 1.375l-2.18-.903a2.54 2.54 0 0 0-1.943.002l-2.182.902a2.54 2.54 0 0 1-3.317-1.374l-.904-2.182a2.541 2.541 0 0 0-1.374-1.376l-2.181-.904a2.541 2.541 0 0 1-1.376-3.318l.903-2.18a2.541 2.541 0 0 0-.002-1.944l-.901-2.183a2.541 2.541 0 0 1 1.375-3.32l2.18-.904A2.54 2.54 0 0 0 7.624 6.25l.904-2.181a2.54 2.54 0 0 1 3.32-1.376l2.18.903a2.54 2.54 0 0 0 1.943-.001l2.183-.9a2.54 2.54 0 0 1 3.319 1.375l.904 2.182v-.004Z" stroke="#333" stroke-width="2" stroke-linecap="round" stroke-linejoin="round"/></svg>