<svg width="30" height="30" fill="none" xmlns="http://www.w3.org/2000/svg"><path d="M17.5 8.75h2.922c.305 0 .458 0 .602.035.128.03.25.08.361.15.127.076.235.185.45.4l5.08 5.08c.215.215.323.324.4.45.07.111.12.233.15.361.035.144.035.297.035.602v3.547c0 .582 0 .874-.095 1.103a1.25 1.25 0 0 1-.677.677c-.23.095-.52.095-1.103.095m-6.25 0H17.5m0 0V9c0-1.4 0-2.1-.273-2.635a2.5 2.5 0 0 0-1.092-1.093C15.6 5 14.9 5 13.5 5h-7c-1.4 0-2.1 0-2.635.272a2.5 2.5 0 0 0-1.093 1.093C2.5 6.9 2.5 7.6 2.5 9v9.75a2.5 2.5 0 0 0 2.5 2.5m12.5 0h-5m0 0a3.75 3.75 0 1 1-7.5 0m7.5 0a3.75 3.75 0 1 0-7.5 0m20.625.625a3.125 3.125 0 1 1-6.25 0 3.125 3.125 0 0 1 6.25 0Z" stroke="#333" stroke-width="2" stroke-linecap="round" stroke-linejoin="round"/></svg>