<svg width="100" height="100" fill="none" xmlns="http://www.w3.org/2000/svg"><circle cx="50" cy="50" r="50" fill="#0085FF"/><path d="M13.056 50.562h7.762v-1.695h-7.762v1.695Zm6.58-5.895v10.889h1.835v-10.89h-1.835Zm-7.311 0v10.889h1.835v-10.89h-1.835Zm12.897 5.444c0-.746.156-1.41.467-1.99a3.54 3.54 0 0 1 1.322-1.385c.56-.332 1.198-.498 1.913-.498.737 0 1.38.166 1.93.498.56.332.995.793 1.306 1.384.311.58.467 1.245.467 1.991 0 .747-.161 1.416-.483 2.007a3.458 3.458 0 0 1-1.306 1.369c-.55.332-1.188.497-1.914.497-.715 0-1.353-.165-1.913-.497-.56-.332-1-.788-1.322-1.37-.311-.59-.467-1.26-.467-2.006Zm-1.944 0c0 .81.14 1.56.42 2.256.28.695.669 1.296 1.166 1.804.509.508 1.11.908 1.805 1.198a5.98 5.98 0 0 0 2.255.42 5.9 5.9 0 0 0 2.256-.42 5.545 5.545 0 0 0 1.804-1.198 5.348 5.348 0 0 0 1.183-1.804 5.98 5.98 0 0 0 .42-2.256c0-.82-.14-1.57-.42-2.255a5.11 5.11 0 0 0-1.198-1.774A5.383 5.383 0 0 0 31.18 44.9a5.902 5.902 0 0 0-2.256-.42c-.798 0-1.545.14-2.24.42a5.557 5.557 0 0 0-1.804 1.182 5.217 5.217 0 0 0-1.182 1.774 5.902 5.902 0 0 0-.42 2.255Zm14.494-.171h1.882c.684 0 1.286-.098 1.804-.295.53-.198.939-.483 1.23-.856.3-.384.45-.845.45-1.385 0-.622-.15-1.135-.45-1.54-.291-.404-.7-.705-1.23-.902-.518-.197-1.12-.295-1.804-.295h-3.282v10.889h3.469c.767 0 1.441-.11 2.022-.327.591-.228 1.053-.576 1.384-1.042.343-.467.514-1.058.514-1.774 0-.518-.104-.964-.311-1.337a2.545 2.545 0 0 0-.872-.918 3.957 3.957 0 0 0-1.244-.53 6.276 6.276 0 0 0-1.493-.17h-2.07v1.01h1.96c.312 0 .597.037.856.11.26.062.483.17.67.326.196.146.347.332.45.56.114.218.172.472.172.763 0 .404-.094.741-.28 1.01-.187.27-.441.473-.763.607a2.83 2.83 0 0 1-1.104.203h-1.525v-7.871h1.323c.508 0 .922.124 1.244.373.322.249.482.601.482 1.058 0 .3-.072.56-.218.778a1.415 1.415 0 0 1-.606.482c-.26.114-.56.17-.902.17h-1.758v.903Zm17.603-3.298.077-2.52-9.675 9.458-.078 2.52 9.676-9.458Zm-7.871-1.975h-1.805V56.1l1.805-2.053v-9.38Zm7.948-.545-1.804 2.1v9.334h1.804V44.122Zm3.146 6.44h7.762v-1.695h-7.762v1.695Zm6.58-5.895v10.889h1.836v-10.89h-1.836Zm-7.311 0v10.889h1.836v-10.89h-1.836Zm11.575 0v10.889h1.883v-10.89h-1.883Zm5.927 0-4.604 5.149 4.79 5.74h2.256l-4.822-5.787 4.59-5.102h-2.21Zm5.011 8.089h5.756l-.358-1.556h-5.056l-.342 1.556Zm2.847-5.01 1.727 4.045.046.451 1.478 3.314h2.069l-5.32-11.496-5.32 11.496h2.069l1.509-3.407.03-.404 1.712-3.998Z" fill="#fff"/></svg>